<svg xmlns="http://www.w3.org/2000/svg" xmlns:xlink="http://www.w3.org/1999/xlink" viewBox="0 0 107.05 134.33"><defs><style>.cls-1{fill:#603772;}.cls-2{isolation:isolate;}.cls-3{opacity:0.2;}.cls-4{clip-path:url(#clip-path);}.cls-5{clip-path:url(#clip-path-2);}.cls-6{mix-blend-mode:hard-light;}.cls-7{clip-path:url(#clip-path-3);}.cls-8{clip-path:url(#clip-path-4);}.cls-13,.cls-9{mix-blend-mode:overlay;}.cls-10{clip-path:url(#clip-path-5);}.cls-11{clip-path:url(#clip-path-6);}.cls-12{mix-blend-mode:darken;}.cls-13{opacity:0.7;}</style><clipPath id="clip-path" transform="translate(-95.82 -63.61)"><path class="cls-1" d="M127.86,172.93l-9.43-5.13q6.3,3.42,16.74,1.95,14-2,20.62-10.69t6.61-25.38l9.43,5.12q0,16.66-6.61,25.39T144.6,174.88Q134.16,176.35,127.86,172.93Z"/></clipPath><clipPath id="clip-path-2" transform="translate(-95.82 -63.61)"><path class="cls-1" d="M120.39,184.11,111,179a23.69,23.69,0,0,1-5.37-4q-9.82-9.67-9.78-32l9.43,5.13q0,22.29,9.78,32A23.85,23.85,0,0,0,120.39,184.11Z"/></clipPath><clipPath id="clip-path-3" transform="translate(-95.82 -63.61)"><path class="cls-1" d="M137.16,178l-9.42-5.13q6.3,3.42,16.74,2,14-2,20.61-10.7t6.62-25.38l9.43,5.12q0,16.68-6.62,25.39t-20.61,10.69Q143.45,181.41,137.16,178Z"/></clipPath><clipPath id="clip-path-4" transform="translate(-95.82 -63.61)"><path class="cls-1" d="M129.7,189.17,120.27,184a23.83,23.83,0,0,1-5.37-4q-9.81-9.67-9.77-32l9.43,5.12q0,22.29,9.77,32A23.69,23.69,0,0,0,129.7,189.17Z"/></clipPath><clipPath id="clip-path-5" transform="translate(-95.82 -63.61)"><path class="cls-1" d="M146.47,183.2,137,178.07q6.3,3.44,16.74,2,14-2,20.62-10.7T181,144l9.43,5.13q0,16.66-6.61,25.38t-20.62,10.7Q152.77,186.62,146.47,183.2Z"/></clipPath><clipPath id="clip-path-6" transform="translate(-95.82 -63.61)"><path class="cls-1" d="M139,194.38l-9.42-5.13a23.39,23.39,0,0,1-5.37-4q-9.83-9.68-9.77-32l9.42,5.13q0,22.27,9.78,32A23.85,23.85,0,0,0,139,194.38Z"/></clipPath></defs><g class="cls-2"><g id="Layer_1" data-name="Layer 1"><g class="cls-3"><g class="cls-2"><g class="cls-2"><path class="cls-1" d="M127.86,172.93l-9.43-5.13q6.3,3.42,16.74,1.95,14-2,20.62-10.69t6.61-25.38l9.43,5.12q0,16.66-6.61,25.39T144.6,174.88Q134.16,176.35,127.86,172.93Z" transform="translate(-95.82 -63.61)"/><g class="cls-4"><g class="cls-2"><path class="cls-1" d="M127.86,172.93l-9.43-5.13.61.31,9.42,5.13-.6-.31" transform="translate(-95.82 -63.61)"/><path class="cls-1" d="M128.46,173.24,119,168.11a18.54,18.54,0,0,0,3.56,1.31l9.43,5.12a18.63,18.63,0,0,1-3.57-1.3" transform="translate(-95.82 -63.61)"/><path class="cls-1" d="M132,174.54l-9.43-5.12a32.36,32.36,0,0,0,12.57.33,38.58,38.58,0,0,0,11.19-3.17l9.43,5.13a38.58,38.58,0,0,1-11.19,3.17,32.33,32.33,0,0,1-12.57-.34" transform="translate(-95.82 -63.61)"/><path class="cls-1" d="M155.79,171.71l-9.43-5.13a27.45,27.45,0,0,0,3.91-2.24l9.43,5.13a28,28,0,0,1-3.91,2.24" transform="translate(-95.82 -63.61)"/><path class="cls-1" d="M159.7,169.47l-9.43-5.13a24.7,24.7,0,0,0,2.46-1.94l9.43,5.13a26.25,26.25,0,0,1-2.46,1.94" transform="translate(-95.82 -63.61)"/><path class="cls-1" d="M162.16,167.53l-9.43-5.13a24.59,24.59,0,0,0,1.9-1.92l9.43,5.13a26.46,26.46,0,0,1-1.9,1.92" transform="translate(-95.82 -63.61)"/><path class="cls-1" d="M164.06,165.61l-9.43-5.13c.4-.46.79-.93,1.16-1.42.17-.23.34-.45.5-.69l9.43,5.13-.5.69c-.37.49-.76,1-1.16,1.42" transform="translate(-95.82 -63.61)"/><path class="cls-1" d="M165.72,163.5l-9.43-5.13a25.09,25.09,0,0,0,1.61-2.62l9.43,5.13a28.16,28.16,0,0,1-1.61,2.62" transform="translate(-95.82 -63.61)"/><path class="cls-1" d="M167.33,160.88l-9.43-5.13a29.37,29.37,0,0,0,1.75-3.93l9.43,5.13a30.7,30.7,0,0,1-1.75,3.93" transform="translate(-95.82 -63.61)"/><path class="cls-1" d="M169.08,157l-9.43-5.13a53.07,53.07,0,0,0,2.75-18.14l9.43,5.12A53.09,53.09,0,0,1,169.08,157" transform="translate(-95.82 -63.61)"/></g></g></g><polygon class="cls-1" points="76.01 75.2 66.58 70.07 66.71 1.73 76.14 6.86 76.01 75.2"/><polygon class="cls-1" points="76.14 6.86 66.71 1.73 79.01 0 88.44 5.13 76.14 6.86"/><g class="cls-2"><path class="cls-1" d="M120.39,184.11,111,179a23.69,23.69,0,0,1-5.37-4q-9.82-9.67-9.78-32l9.43,5.13q0,22.29,9.78,32A23.85,23.85,0,0,0,120.39,184.11Z" transform="translate(-95.82 -63.61)"/><g class="cls-5"><g class="cls-2"><path class="cls-1" d="M120.39,184.11,111,179a23.69,23.69,0,0,1-5.37-4q-9.82-9.67-9.78-32l9.43,5.13q0,22.29,9.78,32a23.85,23.85,0,0,0,5.36,4" transform="translate(-95.82 -63.61)"/></g></g></g><polygon class="cls-1" points="9.56 16.22 0.13 11.09 12.36 9.37 21.79 14.5 9.56 16.22"/><polygon class="cls-1" points="9.43 84.56 0 79.43 0.13 11.09 9.56 16.22 9.43 84.56"/><path class="cls-1" d="M184.26,68.73l-.13,68.34q0,22.29-9.89,34.74T144.58,187q-19.74,2.78-29.55-6.91t-9.78-32l.13-68.34,12.23-1.72-.13,68.34q0,16.67,6.53,23.54t20.59,4.9q14-2,20.62-10.69t6.61-25.39L172,70.46Z" transform="translate(-95.82 -63.61)"/></g></g><g class="cls-6"><g class="cls-2"><g class="cls-2"><path class="cls-1" d="M137.16,178l-9.42-5.13q6.3,3.42,16.74,2,14-2,20.61-10.7t6.62-25.38l9.43,5.12q0,16.68-6.62,25.39t-20.61,10.69Q143.45,181.41,137.16,178Z" transform="translate(-95.82 -63.61)"/><g class="cls-7"><g class="cls-2"><path class="cls-1" d="M137.16,178l-9.42-5.13.6.31,9.43,5.13-.61-.31" transform="translate(-95.82 -63.61)"/><path class="cls-1" d="M137.77,178.3l-9.43-5.13a18.79,18.79,0,0,0,3.56,1.31l9.43,5.13a18.79,18.79,0,0,1-3.56-1.31" transform="translate(-95.82 -63.61)"/><path class="cls-1" d="M141.33,179.61l-9.43-5.13a32.58,32.58,0,0,0,12.58.34,39.22,39.22,0,0,0,11.19-3.17l9.42,5.12a38.6,38.6,0,0,1-11.18,3.17,32.4,32.4,0,0,1-12.58-.33" transform="translate(-95.82 -63.61)"/><path class="cls-1" d="M165.09,176.77l-9.42-5.12a28.06,28.06,0,0,0,3.91-2.25l9.43,5.13a28.13,28.13,0,0,1-3.92,2.24" transform="translate(-95.82 -63.61)"/><path class="cls-1" d="M169,174.53l-9.43-5.13a23.47,23.47,0,0,0,2.45-1.94l9.43,5.13a25.77,25.77,0,0,1-2.45,1.94" transform="translate(-95.82 -63.61)"/><path class="cls-1" d="M171.46,172.59,162,167.46a20.25,20.25,0,0,0,1.9-1.92l9.43,5.13a22.94,22.94,0,0,1-1.9,1.92" transform="translate(-95.82 -63.61)"/><path class="cls-1" d="M173.36,170.67l-9.43-5.13a17.51,17.51,0,0,0,1.16-1.42c.17-.22.34-.45.5-.68l9.43,5.12c-.16.24-.33.47-.5.69-.37.49-.75,1-1.16,1.42" transform="translate(-95.82 -63.61)"/><path class="cls-1" d="M175,168.56l-9.43-5.12a27.43,27.43,0,0,0,1.62-2.62l9.42,5.12a23.5,23.5,0,0,1-1.61,2.62" transform="translate(-95.82 -63.61)"/><path class="cls-1" d="M176.63,165.94l-9.42-5.12a32,32,0,0,0,1.75-3.93l9.43,5.13a31.21,31.21,0,0,1-1.76,3.92" transform="translate(-95.82 -63.61)"/><path class="cls-1" d="M178.39,162,169,156.89a53.17,53.17,0,0,0,2.75-18.15l9.43,5.12q0,10.72-2.75,18.16" transform="translate(-95.82 -63.61)"/></g></g></g><polygon class="cls-1" points="85.31 80.26 75.89 75.13 76.01 6.79 85.44 11.92 85.31 80.26"/><polygon class="cls-1" points="85.44 11.92 76.01 6.79 88.32 5.06 97.74 10.19 85.44 11.92"/><g class="cls-2"><path class="cls-1" d="M129.7,189.17,120.27,184a23.83,23.83,0,0,1-5.37-4q-9.81-9.67-9.77-32l9.43,5.12q0,22.29,9.77,32A23.69,23.69,0,0,0,129.7,189.17Z" transform="translate(-95.82 -63.61)"/><g class="cls-8"><g class="cls-2"><path class="cls-1" d="M129.7,189.17,120.27,184a23.83,23.83,0,0,1-5.37-4q-9.81-9.67-9.77-32l9.43,5.12q0,22.29,9.77,32a23.69,23.69,0,0,0,5.37,4" transform="translate(-95.82 -63.61)"/></g></g></g><polygon class="cls-1" points="18.86 21.28 9.43 16.15 21.66 14.43 31.09 19.56 18.86 21.28"/><polygon class="cls-1" points="18.73 89.62 9.31 84.49 9.43 16.15 18.86 21.28 18.73 89.62"/><path class="cls-1" d="M193.57,73.8l-.13,68.34q0,22.28-9.9,34.73T153.88,192.1q-19.74,2.78-29.55-6.91t-9.77-32l.13-68.34,12.23-1.72-.13,68.35q0,16.65,6.52,23.53t20.6,4.9q14-2,20.61-10.69t6.62-25.39l.12-68.33Z" transform="translate(-95.82 -63.61)"/></g></g><g class="cls-9"><g class="cls-2"><g class="cls-2"><path class="cls-1" d="M146.47,183.2,137,178.07q6.3,3.44,16.74,2,14-2,20.62-10.7T181,144l9.43,5.13q0,16.66-6.61,25.38t-20.62,10.7Q152.77,186.62,146.47,183.2Z" transform="translate(-95.82 -63.61)"/><g class="cls-10"><g class="cls-2"><path class="cls-1" d="M146.47,183.2,137,178.07l.61.31,9.43,5.13-.61-.31" transform="translate(-95.82 -63.61)"/><path class="cls-1" d="M147.08,183.51l-9.43-5.13a17.9,17.9,0,0,0,3.56,1.31l9.43,5.13a18.3,18.3,0,0,1-3.56-1.31" transform="translate(-95.82 -63.61)"/><path class="cls-1" d="M150.64,184.82l-9.43-5.13a32.54,32.54,0,0,0,12.57.34A39.22,39.22,0,0,0,165,176.86L174.4,182a38.89,38.89,0,0,1-11.19,3.18,32.52,32.52,0,0,1-12.57-.34" transform="translate(-95.82 -63.61)"/><path class="cls-1" d="M174.4,182,165,176.86a27.49,27.49,0,0,0,3.91-2.25l9.43,5.13A27,27,0,0,1,174.4,182" transform="translate(-95.82 -63.61)"/><path class="cls-1" d="M178.31,179.74l-9.43-5.13a24.7,24.7,0,0,0,2.46-1.94l9.43,5.13a24.7,24.7,0,0,1-2.46,1.94" transform="translate(-95.82 -63.61)"/><path class="cls-1" d="M180.77,177.8l-9.43-5.13a23,23,0,0,0,1.9-1.92l9.43,5.13a24.59,24.59,0,0,1-1.9,1.92" transform="translate(-95.82 -63.61)"/><path class="cls-1" d="M182.67,175.88l-9.43-5.13c.4-.45.79-.93,1.16-1.42.17-.22.34-.45.5-.68l9.43,5.13c-.17.23-.33.46-.5.68-.37.49-.76,1-1.16,1.42" transform="translate(-95.82 -63.61)"/><path class="cls-1" d="M184.33,173.78l-9.43-5.13a27.36,27.36,0,0,0,1.61-2.62l9.43,5.13a29.54,29.54,0,0,1-1.61,2.62" transform="translate(-95.82 -63.61)"/><path class="cls-1" d="M185.94,171.16,176.51,166a32,32,0,0,0,1.76-3.93l9.42,5.13a32,32,0,0,1-1.75,3.93" transform="translate(-95.82 -63.61)"/><path class="cls-1" d="M187.69,167.23l-9.42-5.13A53.18,53.18,0,0,0,181,144l9.43,5.13a53.17,53.17,0,0,1-2.75,18.15" transform="translate(-95.82 -63.61)"/></g></g></g><polygon class="cls-1" points="94.62 85.47 85.19 80.34 85.32 12 94.74 17.13 94.62 85.47"/><polygon class="cls-1" points="94.74 17.13 85.32 12 97.62 10.27 107.05 15.4 94.74 17.13"/><g class="cls-2"><path class="cls-1" d="M139,194.38l-9.42-5.13a23.39,23.39,0,0,1-5.37-4q-9.83-9.68-9.77-32l9.42,5.13q0,22.27,9.78,32A23.85,23.85,0,0,0,139,194.38Z" transform="translate(-95.82 -63.61)"/><g class="cls-11"><g class="cls-2"><path class="cls-1" d="M139,194.38l-9.42-5.13a23.39,23.39,0,0,1-5.37-4q-9.83-9.68-9.77-32l9.42,5.13q0,22.27,9.78,32a23.85,23.85,0,0,0,5.36,4" transform="translate(-95.82 -63.61)"/></g></g></g><polygon class="cls-1" points="28.17 26.49 18.74 21.36 30.97 19.64 40.4 24.77 28.17 26.49"/><polygon class="cls-1" points="28.04 94.83 18.61 89.7 18.74 21.36 28.17 26.49 28.04 94.83"/><path class="cls-1" d="M202.87,79l-.13,68.34q0,22.28-9.89,34.73t-29.66,15.23q-19.74,2.77-29.55-6.91t-9.78-32L124,90.1l12.23-1.73-.13,68.35q0,16.67,6.53,23.53t20.59,4.91q14-2,20.62-10.7t6.61-25.38l.13-68.34Z" transform="translate(-95.82 -63.61)"/></g></g><g class="cls-12"><g class="cls-2"><g class="cls-2"><path class="cls-1" d="M137.16,178l-9.42-5.13q6.3,3.42,16.74,2,14-2,20.61-10.7t6.62-25.38l9.43,5.12q0,16.68-6.62,25.39t-20.61,10.69Q143.45,181.41,137.16,178Z" transform="translate(-95.82 -63.61)"/><g class="cls-7"><g class="cls-2"><path class="cls-1" d="M137.16,178l-9.42-5.13.6.31,9.43,5.13-.61-.31" transform="translate(-95.82 -63.61)"/><path class="cls-1" d="M137.77,178.3l-9.43-5.13a18.79,18.79,0,0,0,3.56,1.31l9.43,5.13a18.79,18.79,0,0,1-3.56-1.31" transform="translate(-95.82 -63.61)"/><path class="cls-1" d="M141.33,179.61l-9.43-5.13a32.58,32.58,0,0,0,12.58.34,39.22,39.22,0,0,0,11.19-3.17l9.42,5.12a38.6,38.6,0,0,1-11.18,3.17,32.4,32.4,0,0,1-12.58-.33" transform="translate(-95.82 -63.61)"/><path class="cls-1" d="M165.09,176.77l-9.42-5.12a28.06,28.06,0,0,0,3.91-2.25l9.43,5.13a28.13,28.13,0,0,1-3.92,2.24" transform="translate(-95.82 -63.61)"/><path class="cls-1" d="M169,174.53l-9.43-5.13a23.47,23.47,0,0,0,2.45-1.94l9.43,5.13a25.77,25.77,0,0,1-2.45,1.94" transform="translate(-95.82 -63.61)"/><path class="cls-1" d="M171.46,172.59,162,167.46a20.25,20.25,0,0,0,1.9-1.92l9.43,5.13a22.94,22.94,0,0,1-1.9,1.92" transform="translate(-95.82 -63.61)"/><path class="cls-1" d="M173.36,170.67l-9.43-5.13a17.51,17.51,0,0,0,1.16-1.42c.17-.22.34-.45.5-.68l9.43,5.12c-.16.24-.33.47-.5.69-.37.49-.75,1-1.16,1.42" transform="translate(-95.82 -63.61)"/><path class="cls-1" d="M175,168.56l-9.43-5.12a27.43,27.43,0,0,0,1.62-2.62l9.42,5.12a23.5,23.5,0,0,1-1.61,2.62" transform="translate(-95.82 -63.61)"/><path class="cls-1" d="M176.63,165.94l-9.42-5.12a32,32,0,0,0,1.75-3.93l9.43,5.13a31.21,31.21,0,0,1-1.76,3.92" transform="translate(-95.82 -63.61)"/><path class="cls-1" d="M178.39,162,169,156.89a53.17,53.17,0,0,0,2.75-18.15l9.43,5.12q0,10.72-2.75,18.16" transform="translate(-95.82 -63.61)"/></g></g></g><polygon class="cls-1" points="85.31 80.26 75.89 75.13 76.01 6.79 85.44 11.92 85.31 80.26"/><polygon class="cls-1" points="85.44 11.92 76.01 6.79 88.32 5.06 97.74 10.19 85.44 11.92"/><g class="cls-2"><path class="cls-1" d="M129.7,189.17,120.27,184a23.83,23.83,0,0,1-5.37-4q-9.81-9.67-9.77-32l9.43,5.12q0,22.29,9.77,32A23.69,23.69,0,0,0,129.7,189.17Z" transform="translate(-95.82 -63.61)"/><g class="cls-8"><g class="cls-2"><path class="cls-1" d="M129.7,189.17,120.27,184a23.83,23.83,0,0,1-5.37-4q-9.81-9.67-9.77-32l9.43,5.12q0,22.29,9.77,32a23.69,23.69,0,0,0,5.37,4" transform="translate(-95.82 -63.61)"/></g></g></g><polygon class="cls-1" points="18.86 21.28 9.43 16.15 21.66 14.43 31.09 19.56 18.86 21.28"/><polygon class="cls-1" points="18.73 89.62 9.31 84.49 9.43 16.15 18.86 21.28 18.73 89.62"/><path class="cls-1" d="M193.57,73.8l-.13,68.34q0,22.28-9.9,34.73T153.88,192.1q-19.74,2.78-29.55-6.91t-9.77-32l.13-68.34,12.23-1.72-.13,68.35q0,16.65,6.52,23.53t20.6,4.9q14-2,20.61-10.69t6.62-25.39l.12-68.33Z" transform="translate(-95.82 -63.61)"/></g></g><g class="cls-13"><g class="cls-2"><g class="cls-2"><path class="cls-1" d="M146.47,183.2,137,178.07q6.3,3.44,16.74,2,14-2,20.62-10.7T181,144l9.43,5.13q0,16.66-6.61,25.38t-20.62,10.7Q152.77,186.62,146.47,183.2Z" transform="translate(-95.82 -63.61)"/><g class="cls-10"><g class="cls-2"><path class="cls-1" d="M146.47,183.2,137,178.07l.61.31,9.43,5.13-.61-.31" transform="translate(-95.82 -63.61)"/><path class="cls-1" d="M147.08,183.51l-9.43-5.13a17.9,17.9,0,0,0,3.56,1.31l9.43,5.13a18.3,18.3,0,0,1-3.56-1.31" transform="translate(-95.82 -63.61)"/><path class="cls-1" d="M150.64,184.82l-9.43-5.13a32.54,32.54,0,0,0,12.57.34A39.22,39.22,0,0,0,165,176.86L174.4,182a38.89,38.89,0,0,1-11.19,3.18,32.52,32.52,0,0,1-12.57-.34" transform="translate(-95.82 -63.61)"/><path class="cls-1" d="M174.4,182,165,176.86a27.49,27.49,0,0,0,3.91-2.25l9.43,5.13A27,27,0,0,1,174.4,182" transform="translate(-95.82 -63.61)"/><path class="cls-1" d="M178.31,179.74l-9.43-5.13a24.7,24.7,0,0,0,2.46-1.94l9.43,5.13a24.7,24.7,0,0,1-2.46,1.94" transform="translate(-95.82 -63.61)"/><path class="cls-1" d="M180.77,177.8l-9.43-5.13a23,23,0,0,0,1.9-1.92l9.43,5.13a24.59,24.59,0,0,1-1.9,1.92" transform="translate(-95.82 -63.61)"/><path class="cls-1" d="M182.67,175.88l-9.43-5.13c.4-.45.79-.93,1.16-1.42.17-.22.34-.45.5-.68l9.43,5.13c-.17.23-.33.46-.5.68-.37.49-.76,1-1.16,1.42" transform="translate(-95.82 -63.61)"/><path class="cls-1" d="M184.33,173.78l-9.43-5.13a27.36,27.36,0,0,0,1.61-2.62l9.43,5.13a29.54,29.54,0,0,1-1.61,2.62" transform="translate(-95.82 -63.61)"/><path class="cls-1" d="M185.94,171.16,176.51,166a32,32,0,0,0,1.76-3.93l9.42,5.13a32,32,0,0,1-1.75,3.93" transform="translate(-95.82 -63.61)"/><path class="cls-1" d="M187.69,167.23l-9.42-5.13A53.18,53.18,0,0,0,181,144l9.43,5.13a53.17,53.17,0,0,1-2.75,18.15" transform="translate(-95.82 -63.61)"/></g></g></g><polygon class="cls-1" points="94.62 85.47 85.19 80.34 85.32 12 94.74 17.13 94.62 85.47"/><polygon class="cls-1" points="94.74 17.13 85.32 12 97.62 10.27 107.05 15.4 94.74 17.13"/><g class="cls-2"><path class="cls-1" d="M139,194.38l-9.42-5.13a23.39,23.39,0,0,1-5.37-4q-9.83-9.68-9.77-32l9.42,5.13q0,22.27,9.78,32A23.85,23.85,0,0,0,139,194.38Z" transform="translate(-95.82 -63.61)"/><g class="cls-11"><g class="cls-2"><path class="cls-1" d="M139,194.38l-9.42-5.13a23.39,23.39,0,0,1-5.37-4q-9.83-9.68-9.77-32l9.42,5.13q0,22.27,9.78,32a23.85,23.85,0,0,0,5.36,4" transform="translate(-95.82 -63.61)"/></g></g></g><polygon class="cls-1" points="28.17 26.49 18.74 21.36 30.97 19.64 40.4 24.77 28.17 26.49"/><polygon class="cls-1" points="28.04 94.83 18.61 89.7 18.74 21.36 28.17 26.49 28.04 94.83"/><path class="cls-1" d="M202.87,79l-.13,68.34q0,22.28-9.89,34.73t-29.66,15.23q-19.74,2.77-29.55-6.91t-9.78-32L124,90.1l12.23-1.73-.13,68.35q0,16.67,6.53,23.53t20.59,4.91q14-2,20.62-10.7t6.61-25.38l.13-68.34Z" transform="translate(-95.82 -63.61)"/></g></g></g></g></svg>